<?xml version="1.0" encoding="utf-8"?>
<!-- Generator: Adobe Illustrator 24.0.1, SVG Export Plug-In . SVG Version: 6.00 Build 0)  -->
<svg version="1.1" id="Layer_1" xmlns="http://www.w3.org/2000/svg" xmlns:xlink="http://www.w3.org/1999/xlink" x="0px" y="0px"
	 viewBox="0 0 312 240" style="enable-background:new 0 0 312 240;" xml:space="preserve">
<style type="text/css">
	.st0{fill-rule:evenodd;clip-rule:evenodd;fill:#0A5BA7;}
	.st1{fill-rule:evenodd;clip-rule:evenodd;fill:none;}
	.st2{fill-rule:evenodd;clip-rule:evenodd;fill:#E52427;}
</style>
<path class="st0" d="M183.6,2.6c1.3,0.8,0.9,1.8,1.7,3.1c1.4,2.5,3.7,3.3,6.5,4.6c0,0.2,0,0.5,0,0.7c-4.4,1.6-6.4,3.5-7.7,8.2
	c-0.1,0-0.2,0-0.2,0c0-0.2,0-0.3,0-0.5c-2.9-5.5-3.1-4.8-7.9-8.2C179.9,9.8,183,6.7,183.6,2.6z"/>
<path class="st0" d="M203.8,18.7c2.1,2.9,2.4,6.8,5.3,8.9c2.2,1,4.3,2.1,6.5,3.1c-0.2,0-0.3,0-0.5,0c-2.4,2.3-6.2,2.3-8.2,5
	c-1,2.1-1.9,4.2-2.9,6.2c-1.6-1-1.5-3.3-2.4-5c-1.8-3.4-5.5-4.4-9.1-6c0-0.2,0-0.3,0-0.5c1.5-0.6,3-1.3,4.6-1.9
	C200.6,26.5,202,22.6,203.8,18.7z"/>
<path class="st1" d="M152.6,50.9c-0.5,2.7-2.7,4.4-5.3,5c0.1,0.2,0.2,0.3,0.2,0.5c2.5,0.5,4.6,2.5,5,5c0.2-0.1,0.3-0.2,0.5-0.2
	c0.7-3.1,2.9-3.5,4.8-5.3C154.8,54.9,154.7,52.7,152.6,50.9z"/>
<path class="st1" d="M185,60.5c-0.6,2.3-2.6,3.1-4.1,4.6c2.3,0.4,3.7,2,4.3,4.1c0.1,0,0.2,0,0.2,0c0.3-2.5,2.2-3.7,4.3-4.3
	C188.1,63.3,186.6,62.1,185,60.5z"/>
<path class="st0" d="M211,60.2c-12.2-10.9-24.3-21.8-36.5-32.6c-3.6-2.9-15.6-16-19.4-16.6c-25.2,22.5-50.4,45-75.6,67.4
	c0,0.5,0,1,0,1.4c19.1,19,38.2,38.1,57.4,57.1c1.9-1.8,2-6.3,2.9-9.1c2.4-8.2,4.8-16.3,7.2-24.5c1.1-3.5,3.4-7.8-0.7-8.9
	c-0.9-1.5-0.4-2.6-0.2-4.8c-8-5.5-23.7-15.3-34.6-16.8c-0.2-0.2-0.3-0.3-0.5-0.5c0.5-1.7,1-3.4,1.4-5c0.2-0.2,0.3-0.5,0.5-0.7
	c29,8,58.1,16,87.1,24c0.2,0.2,0.3,0.5,0.5,0.7c-0.5,1.8-1,3.5-1.4,5.3c-3,0.6-6.2-1.6-9.1-2.2c-10.1-0.2-20.2-0.5-30.2-0.7
	c-0.4,1.1-0.8,2.2-1.2,3.4c-1.3,0-2.6,0-3.8,0c-1.1,0.5-2.8,9.2-3.4,11c-3.1,11.4-6.2,22.7-9.4,34.1c4.3,4.4,8.6,8.8,13,13.2
	c3.7-0.5,17.4-16.6,20.9-19.9c7.8-7.5,15.4-15.1,23-22.8c3.4-3.4,6.9-6.7,10.3-10.1c5.6-7,15.5-17.2,22.6-22.6c0-0.3,0-0.6,0-1
	C226.2,72,217.9,65.9,211,60.2z M166.8,47.5c5-1.9,6.8-4,8.9-8.9c3,1.4,2,6.5,9.1,8.6c0.2,0.2,0.3,0.5,0.5,0.7
	c-1,1.1-2.7,1.1-4.1,1.9c-2.6,1.6-3.6,4.4-4.8,7.4c-0.2,0-0.3,0-0.5,0c-3.3-4.1-2.9-7.5-9.1-8.9C166.8,48.2,166.8,47.8,166.8,47.5z
	 M151,32.9c3.9-0.9,6-3.3,7-7.2c3.4,2,2.1,6,7.9,7.2c0.1,0.3,0.2,0.6,0.2,1c-6.1,1.1-4.6,4.9-7.9,7.2c-2.6-3.3-2.3-6.1-7.2-7.2
	C151,33.5,151,33.2,151,32.9z M201.1,88.6c-5,0.4-20.1-5.3-25.7-7c-20.6-5.7-41.3-11.4-61.9-17c-0.2-0.4-0.3-0.8-0.5-1.2
	c0.3-0.4,0.6-0.8,1-1.2c29,8.1,57.9,16.2,86.9,24.2c0.5,0.3,0.1,0,0.5,0.5C201.6,87.5,201.4,87.9,201.1,88.6z"/>
<path class="st2" d="M269.8,112.6c-0.2-10.7-0.3-21.4-0.5-32.2c-0.1-0.2-0.2-0.3-0.2-0.5c-5.5-0.1-11-0.2-16.6-0.2
	c-2,1.9-1.1,11.2-1,15.6c-0.1,0.1-0.2,0.2-0.2,0.2c-5.2-1.7-7.5-8.9-13-10.3c-26.2,26.2-52.5,52.3-78.7,78.5c0,24.3,0,48.6,0,73
	c0.2,0.2,0.5,0.3,0.7,0.5c36.1,0,72.2,0,108.2,0c0.2-0.1,0.5-0.2,0.7-0.2c0.1-29.4,0.2-58.9,0.2-88.3c12.9,0,25.8,0,38.6,0
	c0.3-0.2,0.6-0.5,1-0.7C296,136.1,282.9,124.3,269.8,112.6z M185.8,145c0.7,0.2,1.4,0.3,2.2,0.5c0.2,0.3,0.3,0.6,0.5,1
	c0,0.5,0,1,0,1.4c-0.1,0.2-0.2,0.5-0.2,0.7c-0.5,0.2-1,0.3-1.4,0.5c-0.6-0.3-1.3-0.6-1.9-1C184.5,146.4,184.8,145.9,185.8,145z
	 M196.1,156.5c0.2,0.1,0.5,0.2,0.7,0.2c0.1,0.7,0.2,1.4,0.2,2.2c-1.4,1-7.1,1.8-9.1,0.5c-0.7-0.5-0.8-0.6-1-1.7c0.3-0.5,0.6-1,1-1.4
	C190.6,156.3,193.4,156.4,196.1,156.5z M181.4,158.4c0.2-1.3,0.4-1.4,1-2.2c0.8,0,1.6,0,2.4,0c0.3,0.4,0.6,0.8,1,1.2
	c-0.1,1.2-0.3,1.5-1,2.2c-0.9,0-1.8,0-2.6,0C181.9,159.2,181.7,158.8,181.4,158.4z M188.4,169.9c-0.5,0.3-1,0.6-1.4,1
	c-2,0-2.4-0.5-2.4-2.6c0.5-0.4,1-0.8,1.4-1.2c0.5,0,1,0,1.4,0c0.1,0,0.2,0,0.2,0C188.4,168,188.7,168.3,188.4,169.9z M198.2,163.9
	c-1.1,1.9-5.3,4.1-8.2,4.1c-2.2-3.8,3.7-5.1,6-6.7c1.4,0.1,1.7,0.2,2.2,1.2C198.2,163,198.2,163.4,198.2,163.9z M198.2,153.6
	c-0.1,0.2-0.2,0.5-0.2,0.7c-3.4,0.6-5-1.9-7.7-2.9c-0.6-0.8-1.2-1.3-0.7-2.6c0.2-0.3,0.5-0.6,0.7-1c2.7,0.1,6.9,2.4,7.9,4.3
	C198.2,152.6,198.2,153.1,198.2,153.6z M242.6,230.4c-3.6,1.5-10,0.7-14.6,0.7c-20.1,0-23.8,2.2-23.8-18.7c0-3.4,0-6.7,0-10.1
	c1.5-1.8,3-3.7,4.6-5.5c5.2-7.2,9.5-13,9.4-25.7c-0.2-0.1-0.3-0.2-0.5-0.2c-1.1,1.6-9.2,9.7-11.3,5.8c-0.1-0.3,2.3-7.8,2.9-9.8
	c-0.6-0.2-1.3-0.5-1.9-0.7c-0.1-1-0.2-1.9-0.2-2.9c-1.9-0.1-3.8-0.2-5.8-0.2c-1.2-1.8-1.3-6.5-0.7-9.4c0.3-0.2,0.6-0.5,1-0.7
	c10.7,0,21.4,0,32.2,0c3,2.1,5.9,4.2,8.9,6.2c0.8,1.4,0.8,4.1,0.7,6.5c-3.2,2.3-7.1,1.2-8.9,5c-3.7,9.5,7,23.1,10.3,27.6
	c1.1,1.3,2.2,2.6,3.4,3.8c0,2.7,0,5.4,0,8.2C248.2,219.5,249.2,227.7,242.6,230.4z"/>
<path class="st0" d="M151.4,224.9c0-9.8,0-19.7,0-29.5c-0.1-10.6-0.2-21.3-0.2-31.9c-26-26.1-52-52.2-78-78.2c-0.5,0-1,0-1.4,0
	c-3.5,3.1-7,6.2-10.6,9.4c-5.2,4.2-9.6,9.3-15.1,13.2c0.7,4.9,3.7,9.1,5.5,13.2c6.1,14.1,12.2,28.2,18.2,42.2
	c2.4,1.4,5.9-0.2,9.1,0.5c4.6,0.9,7.6,3.5,11.3,5c0.5,0.6,1,1.1,1.4,1.7c-11.8,3.1-23.7,6.2-35.5,9.4c-3.9-5.5,7.7-12.3,9.4-14.4
	c0.6-2.4-4.4-11.1-5.5-13.7c-5.7-13-11.4-25.9-17-38.9c-0.4-0.2-0.8-0.3-1.2-0.5c-13.2,11.7-26.4,23.4-39.6,35c0,0.3,0,0.6,0,1
	c13.2,0.1,26.4,0.2,39.6,0.2c0.2,29.3,0.3,58.6,0.5,87.8c0.1,0.2,0.2,0.5,0.2,0.7c36.2,0,72.3,0,108.5,0
	C152.3,234.5,151.4,228.4,151.4,224.9z M103.7,221.5c-2.3,0.8-6.7,3-9.6,1.9c-8.3-3.2-11-15.3-16.8-21.4c-0.3-0.5,0-0.1-0.5-0.5
	c3.6,12.3,4.7,17.1,12.2,25.2c-5.5,0.6-11,1.3-16.6,1.9c-4.2-6.8-6.6-14.8-9.8-22.6c-2.5-6.1-6.1-13.3-6.7-20.9
	c12.8-3.5,25.6-7,38.4-10.6c0.4,0,0.8,0,1.2,0c6.8,6.9,9,18.7,14.6,26.6c2.7,3.8,6.5,7.7,10.6,10.1c2,0.9,4,1.8,6,2.6
	C119,216.6,111.4,219,103.7,221.5z M127.7,196.3c-8.3,1.9-12.5-7.9-8.4-13.4c1.2-1.7,3.3-2.2,5.3-3.1
	C135.9,179.4,137,194.2,127.7,196.3z M145.2,205.9c-0.7,1.8-3,3.5-5.5,2.6c-1.8-0.7-3.2-2.7-2.4-5.3c0.7-1.7,1.7-2,3.1-2.9
	c1.8,0.1,2.4,0.5,3.6,1C144.9,202.6,145.8,203.9,145.2,205.9z"/>
</svg>
